# Blender v2.83.2 OBJ File: ''
# www.blender.org
mtllib building.mtl
o Cube_Cube.001
v -9.713536 -0.114844 9.801335
v -9.713536 0.114844 9.801335
v -9.713536 -0.114844 -9.801335
v -9.713536 0.114844 -9.801335
v 9.713536 -0.114844 9.801335
v 9.713536 0.114844 9.801335
v 9.713536 -0.114844 -9.801335
v 9.713536 0.114844 -9.801335
vt 0.375000 0.000000
vt 0.625000 0.000000
vt 0.625000 0.250000
vt 0.375000 0.250000
vt 0.625000 0.500000
vt 0.375000 0.500000
vt 0.625000 0.750000
vt 0.375000 0.750000
vt 0.625000 1.000000
vt 0.375000 1.000000
vt 0.125000 0.500000
vt 0.125000 0.750000
vt 0.875000 0.500000
vt 0.875000 0.750000
vn -1.0000 0.0000 0.0000
vn 0.0000 0.0000 -1.0000
vn 1.0000 0.0000 0.0000
vn 0.0000 0.0000 1.0000
vn 0.0000 -1.0000 0.0000
vn 0.0000 1.0000 0.0000
usemtl None
s off
f 1/1/1 2/2/1 4/3/1 3/4/1
f 3/4/2 4/3/2 8/5/2 7/6/2
f 7/6/3 8/5/3 6/7/3 5/8/3
f 5/8/4 6/7/4 2/9/4 1/10/4
f 3/11/5 7/6/5 5/8/5 1/12/5
f 8/5/6 4/13/6 2/14/6 6/7/6
o Cube.001_Cube.002
v -6.587833 0.004879 0.897098
v -6.587833 2.004879 0.897098
v -6.587833 0.004879 -1.102902
v -6.587833 2.004879 -1.102902
v -4.587833 0.004879 0.897098
v -4.587833 2.004879 0.897098
v -4.587833 0.004879 -1.102902
v -4.587833 2.004879 -1.102902
vt 0.375000 0.000000
vt 0.625000 0.000000
vt 0.625000 0.250000
vt 0.375000 0.250000
vt 0.625000 0.500000
vt 0.375000 0.500000
vt 0.625000 0.750000
vt 0.375000 0.750000
vt 0.625000 1.000000
vt 0.375000 1.000000
vt 0.125000 0.500000
vt 0.125000 0.750000
vt 0.875000 0.500000
vt 0.875000 0.750000
vn -1.0000 0.0000 0.0000
vn 0.0000 0.0000 -1.0000
vn 1.0000 0.0000 0.0000
vn 0.0000 0.0000 1.0000
vn 0.0000 -1.0000 0.0000
vn 0.0000 1.0000 0.0000
usemtl None
s off
f 9/15/7 10/16/7 12/17/7 11/18/7
f 11/18/8 12/17/8 16/19/8 15/20/8
f 15/20/9 16/19/9 14/21/9 13/22/9
f 13/22/10 14/21/10 10/23/10 9/24/10
f 11/25/11 15/20/11 13/22/11 9/26/11
f 16/19/12 12/27/12 10/28/12 14/21/12
o Cube.002_Cube.003
v -9.692121 0.115827 2.585911
v -9.692121 0.906637 2.585911
v -9.692121 0.115827 -2.433544
v -9.692121 0.906637 -2.433544
v -9.338819 0.115827 2.585911
v -9.338819 0.906637 2.585911
v -9.338819 0.115827 -2.433544
v -9.338819 0.906637 -2.433544
vt 0.375000 0.000000
vt 0.625000 0.000000
vt 0.625000 0.250000
vt 0.375000 0.250000
vt 0.625000 0.500000
vt 0.375000 0.500000
vt 0.625000 0.750000
vt 0.375000 0.750000
vt 0.625000 1.000000
vt 0.375000 1.000000
vt 0.125000 0.500000
vt 0.125000 0.750000
vt 0.875000 0.500000
vt 0.875000 0.750000
vn -1.0000 0.0000 0.0000
vn 0.0000 0.0000 -1.0000
vn 1.0000 0.0000 0.0000
vn 0.0000 0.0000 1.0000
vn 0.0000 -1.0000 0.0000
vn 0.0000 1.0000 0.0000
usemtl None
s off
f 17/29/13 18/30/13 20/31/13 19/32/13
f 19/32/14 20/31/14 24/33/14 23/34/14
f 23/34/15 24/33/15 22/35/15 21/36/15
f 21/36/16 22/35/16 18/37/16 17/38/16
f 19/39/17 23/34/17 21/36/17 17/40/17
f 24/33/18 20/41/18 18/42/18 22/35/18
o Cube.003_Cube.005
v -9.692121 0.092914 -4.727314
v -9.692121 3.165675 -4.727314
v -9.692121 0.092914 -9.746770
v -9.692121 3.165675 -9.746770
v -9.338819 0.092914 -4.727314
v -9.338819 3.165675 -4.727314
v -9.338819 0.092914 -9.746770
v -9.338819 3.165675 -9.746770
vt 0.375000 0.000000
vt 0.625000 0.000000
vt 0.625000 0.250000
vt 0.375000 0.250000
vt 0.625000 0.500000
vt 0.375000 0.500000
vt 0.625000 0.750000
vt 0.375000 0.750000
vt 0.625000 1.000000
vt 0.375000 1.000000
vt 0.125000 0.500000
vt 0.125000 0.750000
vt 0.875000 0.500000
vt 0.875000 0.750000
vn -1.0000 0.0000 0.0000
vn 0.0000 0.0000 -1.0000
vn 1.0000 0.0000 0.0000
vn 0.0000 0.0000 1.0000
vn 0.0000 -1.0000 0.0000
vn 0.0000 1.0000 0.0000
usemtl None
s off
f 25/43/19 26/44/19 28/45/19 27/46/19
f 27/46/20 28/45/20 32/47/20 31/48/20
f 31/48/21 32/47/21 30/49/21 29/50/21
f 29/50/22 30/49/22 26/51/22 25/52/22
f 27/53/23 31/48/23 29/50/23 25/54/23
f 32/47/24 28/55/24 26/56/24 30/49/24
o Cube.004_Cube.006
v -9.692121 0.092914 9.661600
v -9.692121 3.165675 9.661600
v -9.692121 0.092914 4.642145
v -9.692121 3.165675 4.642145
v -9.338819 0.092914 9.661600
v -9.338819 3.165675 9.661600
v -9.338819 0.092914 4.642145
v -9.338819 3.165675 4.642145
vt 0.375000 0.000000
vt 0.625000 0.000000
vt 0.625000 0.250000
vt 0.375000 0.250000
vt 0.625000 0.500000
vt 0.375000 0.500000
vt 0.625000 0.750000
vt 0.375000 0.750000
vt 0.625000 1.000000
vt 0.375000 1.000000
vt 0.125000 0.500000
vt 0.125000 0.750000
vt 0.875000 0.500000
vt 0.875000 0.750000
vn -1.0000 0.0000 0.0000
vn 0.0000 0.0000 -1.0000
vn 1.0000 0.0000 0.0000
vn 0.0000 0.0000 1.0000
vn 0.0000 -1.0000 0.0000
vn 0.0000 1.0000 0.0000
usemtl None
s off
f 33/57/25 34/58/25 36/59/25 35/60/25
f 35/60/26 36/59/26 40/61/26 39/62/26
f 39/62/27 40/61/27 38/63/27 37/64/27
f 37/64/28 38/63/28 34/65/28 33/66/28
f 35/67/29 39/62/29 37/64/29 33/68/29
f 40/61/30 36/69/30 34/70/30 38/63/30
o Cube.005_Cube.007
v -4.068953 0.004879 6.015043
v -4.068953 2.004879 6.015043
v -5.096313 0.004879 4.299080
v -5.096313 2.004879 4.299080
v -2.352989 0.004879 4.987683
v -2.352989 2.004879 4.987683
v -3.380349 0.004879 3.271720
v -3.380349 2.004879 3.271720
vt 0.375000 0.000000
vt 0.625000 0.000000
vt 0.625000 0.250000
vt 0.375000 0.250000
vt 0.625000 0.500000
vt 0.375000 0.500000
vt 0.625000 0.750000
vt 0.375000 0.750000
vt 0.625000 1.000000
vt 0.375000 1.000000
vt 0.125000 0.500000
vt 0.125000 0.750000
vt 0.875000 0.500000
vt 0.875000 0.750000
vn -0.8580 0.0000 0.5137
vn -0.5137 0.0000 -0.8580
vn 0.8580 0.0000 -0.5137
vn 0.5137 0.0000 0.8580
vn 0.0000 -1.0000 0.0000
vn 0.0000 1.0000 0.0000
usemtl None
s off
f 41/71/31 42/72/31 44/73/31 43/74/31
f 43/74/32 44/73/32 48/75/32 47/76/32
f 47/76/33 48/75/33 46/77/33 45/78/33
f 45/78/34 46/77/34 42/79/34 41/80/34
f 43/81/35 47/76/35 45/78/35 41/82/35
f 48/75/36 44/83/36 42/84/36 46/77/36
o Cube.006_Cube.008
v -0.828852 0.004879 -3.457040
v -0.828852 2.004879 -3.457040
v -2.606446 0.004879 -4.373642
v -2.606446 2.004879 -4.373642
v 0.087750 0.004879 -5.234634
v 0.087750 2.004879 -5.234634
v -1.689844 0.004879 -6.151236
v -1.689844 2.004879 -6.151236
vt 0.375000 0.000000
vt 0.625000 0.000000
vt 0.625000 0.250000
vt 0.375000 0.250000
vt 0.625000 0.500000
vt 0.375000 0.500000
vt 0.625000 0.750000
vt 0.375000 0.750000
vt 0.625000 1.000000
vt 0.375000 1.000000
vt 0.125000 0.500000
vt 0.125000 0.750000
vt 0.875000 0.500000
vt 0.875000 0.750000
vn -0.4583 0.0000 0.8888
vn -0.8888 0.0000 -0.4583
vn 0.4583 0.0000 -0.8888
vn 0.8888 0.0000 0.4583
vn 0.0000 -1.0000 0.0000
vn 0.0000 1.0000 -0.0000
usemtl None
s off
f 49/85/37 50/86/37 52/87/37 51/88/37
f 51/88/38 52/87/38 56/89/38 55/90/38
f 55/90/39 56/89/39 54/91/39 53/92/39
f 53/92/40 54/91/40 50/93/40 49/94/40
f 51/95/41 55/90/41 53/92/41 49/96/41
f 56/89/42 52/97/42 50/98/42 54/91/42
o Cube.007_Cube.009
v -9.692121 2.338380 2.585911
v -9.692121 3.129191 2.585911
v -9.692121 2.338380 -2.433544
v -9.692121 3.129191 -2.433544
v -9.338819 2.338380 2.585911
v -9.338819 3.129191 2.585911
v -9.338819 2.338380 -2.433544
v -9.338819 3.129191 -2.433544
vt 0.375000 0.000000
vt 0.625000 0.000000
vt 0.625000 0.250000
vt 0.375000 0.250000
vt 0.625000 0.500000
vt 0.375000 0.500000
vt 0.625000 0.750000
vt 0.375000 0.750000
vt 0.625000 1.000000
vt 0.375000 1.000000
vt 0.125000 0.500000
vt 0.125000 0.750000
vt 0.875000 0.500000
vt 0.875000 0.750000
vn -1.0000 0.0000 0.0000
vn 0.0000 0.0000 -1.0000
vn 1.0000 0.0000 0.0000
vn 0.0000 0.0000 1.0000
vn 0.0000 -1.0000 0.0000
vn 0.0000 1.0000 0.0000
usemtl None
s off
f 57/99/43 58/100/43 60/101/43 59/102/43
f 59/102/44 60/101/44 64/103/44 63/104/44
f 63/104/45 64/103/45 62/105/45 61/106/45
f 61/106/46 62/105/46 58/107/46 57/108/46
f 59/109/47 63/104/47 61/106/47 57/110/47
f 64/103/48 60/111/48 58/112/48 62/105/48
o Cube.008_Cube.010
v 1.231272 -0.087961 9.817351
v 1.231272 0.098925 9.817351
v 1.231272 -0.087961 7.817351
v 1.231272 0.098925 7.817351
v 6.795498 -0.087961 9.817351
v 6.795498 3.069814 9.817351
v 6.795498 -0.087961 7.817351
v 6.795498 3.069814 7.817351
v 9.708617 3.069814 7.817351
v 9.708617 -0.087961 7.817351
v 9.708617 -0.087961 9.817351
v 9.708617 3.069814 9.817351
vt 0.375000 0.250000
vt 0.625000 0.250000
vt 0.625000 0.500000
vt 0.375000 0.500000
vt 0.625000 0.750000
vt 0.375000 0.750000
vt 0.375000 0.750000
vt 0.625000 0.750000
vt 0.625000 1.000000
vt 0.375000 1.000000
vt 0.875000 0.500000
vt 0.875000 0.750000
vt 0.375000 0.500000
vt 0.625000 0.500000
vn 0.0000 0.0000 -1.0000
vn 0.0000 0.0000 1.0000
vn -0.4710 0.8821 0.0000
vn 1.0000 0.0000 0.0000
vn 0.0000 1.0000 0.0000
usemtl None
s off
f 67/113/49 68/114/49 72/115/49 71/116/49
f 70/117/50 69/118/50 75/119/50 76/120/50
f 69/118/50 70/117/50 66/121/50 65/122/50
f 72/115/51 68/123/51 66/124/51 70/117/51
f 74/125/52 73/126/52 76/120/52 75/119/52
f 72/115/53 70/117/53 76/120/53 73/126/53
f 71/116/49 72/115/49 73/126/49 74/125/49
o Cube.009_Cube.011
v -9.713536 2.832090 9.801335
v -9.713536 3.061779 9.801335
v -9.713536 2.832090 -9.801335
v -9.713536 3.061779 -9.801335
v 9.713536 2.832090 9.801335
v 9.713536 3.061779 9.801335
v 9.713536 2.832090 -9.801335
v 9.713536 3.061779 -9.801335
v -9.713536 2.832090 0.000000
v -9.713536 3.061779 0.000000
v 9.713536 2.832090 7.828819
v 9.713536 3.061779 7.810357
v 0.000000 2.832090 -9.801335
v 0.000000 3.061779 -9.801335
v 0.000000 2.832090 9.801335
v 0.000000 3.061779 9.801335
v 0.000000 3.061779 7.810357
v 0.000000 2.832090 7.828819
v 0.000000 3.061779 9.801335
v 0.000000 3.061779 7.810357
v 0.054213 2.782596 9.841046
v 0.054213 2.782596 7.850068
v 0.000000 3.061779 7.810357
v 0.054213 2.782596 7.850068
v 9.769731 2.759108 7.855637
v 0.056194 2.759108 7.855637
v -9.731548 -0.092395 -9.086686
v -9.731548 2.955446 -9.086686
v -9.731548 -0.092395 -9.868177
v -9.731548 2.955446 -9.868177
v 9.731548 -0.092395 -9.086686
v 9.731548 2.955446 -9.086686
v 9.731548 -0.092395 -9.868177
v 9.731548 2.955446 -9.868177
vt 0.375000 0.125000
vt 0.625000 0.125000
vt 0.625000 0.250000
vt 0.375000 0.250000
vt 0.375000 0.375000
vt 0.625000 0.375000
vt 0.625000 0.500000
vt 0.375000 0.500000
vt 0.375000 0.625000
vt 0.625000 0.625000
vt 0.625000 0.750000
vt 0.375000 0.750000
vt 0.375000 0.875000
vt 0.625000 0.875000
vt 0.625000 1.000000
vt 0.375000 1.000000
vt 0.750000 0.625000
vt 0.875000 0.625000
vt 0.875000 0.750000
vt 0.750000 0.750000
vt 0.750000 0.500000
vt 0.875000 0.500000
vt 0.250000 0.500000
vt 0.250000 0.625000
vt 0.375000 0.000000
vt 0.625000 0.000000
vt 0.125000 0.500000
vt 0.125000 0.625000
vt 0.250000 0.750000
vt 0.125000 0.750000
vt 0.750000 0.750000
vt 0.750000 0.625000
vt 0.750000 0.750000
vt 0.750000 0.625000
vt 0.750000 0.625000
vt 0.750000 0.625000
vt 0.750000 0.625000
vt 0.625000 0.625000
vt 0.375000 0.000000
vt 0.625000 0.000000
vt 0.625000 0.250000
vt 0.375000 0.250000
vt 0.625000 0.500000
vt 0.375000 0.500000
vt 0.625000 0.750000
vt 0.375000 0.750000
vt 0.625000 1.000000
vt 0.375000 1.000000
vt 0.125000 0.500000
vt 0.125000 0.750000
vt 0.875000 0.500000
vt 0.875000 0.750000
vn -1.0000 0.0000 0.0000
vn 0.0000 0.0000 -1.0000
vn 1.0000 0.0000 0.0000
vn 0.0000 0.0000 1.0000
vn 0.0000 1.0000 0.0000
vn 0.0000 -1.0000 0.0000
vn 0.9817 0.1906 0.0000
vn 0.0000 0.1480 0.9890
usemtl None
s off
f 85/127/54 86/128/54 80/129/54 79/130/54
f 89/131/55 90/132/55 84/133/55 83/134/55
f 87/135/56 88/136/56 82/137/56 81/138/56
f 91/139/57 92/140/57 78/141/57 77/142/57
f 93/143/58 86/144/58 78/145/58 92/146/58
f 90/147/58 80/148/58 86/144/58 93/143/58
f 89/149/59 83/134/59 87/135/59 94/150/59
f 83/134/56 84/133/56 88/136/56 87/135/56
f 77/151/54 78/152/54 86/128/54 85/127/54
f 79/153/59 89/149/59 94/150/59 85/154/59
f 84/133/58 90/147/58 93/143/58 88/136/58
f 85/154/59 94/150/59 91/155/59 77/156/59
f 79/130/55 80/129/55 90/132/55 89/131/55
f 93/143/57 92/146/57 95/157/57 96/158/57
f 96/158/60 95/157/60 97/159/60 98/160/60
f 96/158/57 98/160/57 100/161/57 99/162/57
f 88/136/61 93/143/61 102/163/61 101/164/61
f 103/165/54 104/166/54 106/167/54 105/168/54
f 105/168/55 106/167/55 110/169/55 109/170/55
f 109/170/56 110/169/56 108/171/56 107/172/56
f 107/172/57 108/171/57 104/173/57 103/174/57
f 105/175/59 109/170/59 107/172/59 103/176/59
f 110/169/58 106/177/58 104/178/58 108/171/58
o Cube.010_Cube.012
v 9.248280 -0.071494 8.193276
v 9.248280 2.862525 8.193276
v 9.248280 -0.071494 -7.330396
v 9.248280 2.862525 -7.330396
v 9.690050 -0.071494 8.193276
v 9.690050 2.862525 8.193276
v 9.690050 -0.071494 -7.330396
v 9.690050 2.862525 -7.330396
vt 0.375000 0.000000
vt 0.625000 0.000000
vt 0.625000 0.250000
vt 0.375000 0.250000
vt 0.625000 0.500000
vt 0.375000 0.500000
vt 0.625000 0.750000
vt 0.375000 0.750000
vt 0.625000 1.000000
vt 0.375000 1.000000
vt 0.125000 0.500000
vt 0.125000 0.750000
vt 0.875000 0.500000
vt 0.875000 0.750000
vn -1.0000 0.0000 0.0000
vn 0.0000 0.0000 -1.0000
vn 1.0000 0.0000 0.0000
vn 0.0000 0.0000 1.0000
vn 0.0000 -1.0000 0.0000
vn 0.0000 1.0000 0.0000
usemtl None
s off
f 111/179/62 112/180/62 114/181/62 113/182/62
f 113/182/63 114/181/63 118/183/63 117/184/63
f 117/184/64 118/183/64 116/185/64 115/186/64
f 115/186/65 116/185/65 112/187/65 111/188/65
f 113/189/66 117/184/66 115/186/66 111/190/66
f 118/183/67 114/191/67 112/192/67 116/185/67
o Cube.011_Cube.013
v -9.745167 -0.042027 9.830172
v -9.745167 3.033733 9.830172
v -9.745167 -0.042027 9.477085
v -9.745167 3.033733 9.477085
v 9.745167 -0.042027 9.830172
v 9.745167 3.033733 9.830172
v 9.745167 -0.042027 9.477085
v 9.745167 3.033733 9.477085
vt 0.375000 0.000000
vt 0.625000 0.000000
vt 0.625000 0.250000
vt 0.375000 0.250000
vt 0.625000 0.500000
vt 0.375000 0.500000
vt 0.625000 0.750000
vt 0.375000 0.750000
vt 0.625000 1.000000
vt 0.375000 1.000000
vt 0.125000 0.500000
vt 0.125000 0.750000
vt 0.875000 0.500000
vt 0.875000 0.750000
vn -1.0000 0.0000 0.0000
vn 0.0000 0.0000 -1.0000
vn 1.0000 0.0000 0.0000
vn 0.0000 0.0000 1.0000
vn 0.0000 -1.0000 0.0000
vn 0.0000 1.0000 0.0000
usemtl None
s off
f 119/193/68 120/194/68 122/195/68 121/196/68
f 121/196/69 122/195/69 126/197/69 125/198/69
f 125/198/70 126/197/70 124/199/70 123/200/70
f 123/200/71 124/199/71 120/201/71 119/202/71
f 121/203/72 125/198/72 123/200/72 119/204/72
f 126/197/73 122/205/73 120/206/73 124/199/73
